<svg width="110" height="98" viewBox="0 0 110 98" fill="none" xmlns="http://www.w3.org/2000/svg">
<circle cx="54.5" cy="40.5" r="30.5" fill="#D2DFFF"/>
<g filter="url(#filter0_bdi_22_214)">
<path fill-rule="evenodd" clip-rule="evenodd" d="M67.2672 49.5878H41.6565V49.5855C41.5867 49.587 41.5167 49.5878 41.4466 49.5878C36.2294 49.5878 32 45.3584 32 40.1412C32 36.6006 33.9478 33.515 36.8303 31.8974C36.8289 31.8116 36.8282 31.7255 36.8282 31.6393C36.8282 23.002 43.8302 16 52.4676 16C59.918 16 66.1516 21.2098 67.7241 28.1851C73.425 28.4245 77.9733 33.1219 77.9733 38.8817C77.9733 44.5831 73.5166 49.2436 67.8969 49.5696V49.5878H67.2672Z" fill="url(#paint0_radial_22_214)" fill-opacity="0.77"/>
</g>
<g style="mix-blend-mode:soft-light" filter="url(#filter1_di_22_214)">
<circle cx="41.4466" cy="40.1412" r="9.44656" fill="#848484"/>
</g>
<path d="M49.0185 54.6028C49.2152 54.4171 49.5393 54.5343 49.5699 54.8023L49.8183 56.9835C49.9382 58.036 48.9054 58.8496 47.9078 58.4887C46.9102 58.1278 46.6452 56.8446 47.4176 56.115L49.0185 54.6028Z" fill="#158C96"/>
<path d="M55.1063 54.6028C55.303 54.4171 55.6271 54.5343 55.6577 54.8023L55.9061 56.9835C56.026 58.036 54.9932 58.8496 53.9956 58.4887C52.998 58.1278 52.733 56.8446 53.5054 56.115L55.1063 54.6028Z" fill="#158C96"/>
<path d="M61.6139 54.6028C61.8106 54.4171 62.1348 54.5343 62.1653 54.8023L62.4137 56.9835C62.5336 58.036 61.5009 58.8496 60.5032 58.4887C59.5056 58.1278 59.2406 56.8446 60.0131 56.115L61.6139 54.6028Z" fill="#158C96"/>
<path d="M51.1176 61.3233C51.3139 61.1375 51.6379 61.2553 51.6687 61.5235L51.9192 63.7069C52.0401 64.7604 51.0091 65.5737 50.012 65.2114C49.0148 64.8491 48.7487 63.5646 49.5197 62.8351L51.1176 61.3233Z" fill="#158C96"/>
<path d="M57.2054 61.3233C57.4017 61.1375 57.7257 61.2553 57.7565 61.5235L58.007 63.7069C58.1279 64.7604 57.0969 65.5737 56.0998 65.2114C55.1026 64.8491 54.8365 63.5646 55.6075 62.8351L57.2054 61.3233Z" fill="#158C96"/>
<defs>
<filter id="filter0_bdi_22_214" x="0" y="0" width="109.973" height="97.5878" filterUnits="userSpaceOnUse" color-interpolation-filters="sRGB">
<feFlood flood-opacity="0" result="BackgroundImageFix"/>
<feGaussianBlur in="BackgroundImage" stdDeviation="8"/>
<feComposite in2="SourceAlpha" operator="in" result="effect1_backgroundBlur_22_214"/>
<feColorMatrix in="SourceAlpha" type="matrix" values="0 0 0 0 0 0 0 0 0 0 0 0 0 0 0 0 0 0 127 0" result="hardAlpha"/>
<feOffset dy="16"/>
<feGaussianBlur stdDeviation="16"/>
<feColorMatrix type="matrix" values="0 0 0 0 0 0 0 0 0 0.2015 0 0 0 0 0.3875 0 0 0 0.2 0"/>
<feBlend mode="normal" in2="effect1_backgroundBlur_22_214" result="effect2_dropShadow_22_214"/>
<feBlend mode="normal" in="SourceGraphic" in2="effect2_dropShadow_22_214" result="shape"/>
<feColorMatrix in="SourceAlpha" type="matrix" values="0 0 0 0 0 0 0 0 0 0 0 0 0 0 0 0 0 0 127 0" result="hardAlpha"/>
<feOffset dx="1" dy="2"/>
<feGaussianBlur stdDeviation="7"/>
<feComposite in2="hardAlpha" operator="arithmetic" k2="-1" k3="1"/>
<feColorMatrix type="matrix" values="0 0 0 0 1 0 0 0 0 1 0 0 0 0 1 0 0 0 1 0"/>
<feBlend mode="normal" in2="shape" result="effect3_innerShadow_22_214"/>
</filter>
<filter id="filter1_di_22_214" x="24" y="14.6947" width="48.8931" height="46.8931" filterUnits="userSpaceOnUse" color-interpolation-filters="sRGB">
<feFlood flood-opacity="0" result="BackgroundImageFix"/>
<feColorMatrix in="SourceAlpha" type="matrix" values="0 0 0 0 0 0 0 0 0 0 0 0 0 0 0 0 0 0 127 0" result="hardAlpha"/>
<feOffset dx="-2" dy="-10"/>
<feGaussianBlur stdDeviation="3"/>
<feColorMatrix type="matrix" values="0 0 0 0 0 0 0 0 0 0 0 0 0 0 0 0 0 0 0.22 0"/>
<feBlend mode="normal" in2="BackgroundImageFix" result="effect1_dropShadow_22_214"/>
<feBlend mode="normal" in="SourceGraphic" in2="effect1_dropShadow_22_214" result="shape"/>
<feColorMatrix in="SourceAlpha" type="matrix" values="0 0 0 0 0 0 0 0 0 0 0 0 0 0 0 0 0 0 127 0" result="hardAlpha"/>
<feOffset dx="22" dy="12"/>
<feGaussianBlur stdDeviation="11"/>
<feComposite in2="hardAlpha" operator="arithmetic" k2="-1" k3="1"/>
<feColorMatrix type="matrix" values="0 0 0 0 1 0 0 0 0 1 0 0 0 0 1 0 0 0 0.74 0"/>
<feBlend mode="normal" in2="shape" result="effect2_innerShadow_22_214"/>
</filter>
<radialGradient id="paint0_radial_22_214" cx="0" cy="0" r="1" gradientUnits="userSpaceOnUse" gradientTransform="translate(48.1986 23.1614) rotate(90.6693) scale(26.4144 30.1423)">
<stop stop-color="white"/>
<stop offset="1" stop-color="#99CEFF"/>
</radialGradient>
</defs>
</svg>
