<svg width="111" height="98" viewBox="0 0 111 98" fill="none" xmlns="http://www.w3.org/2000/svg">
<path d="M51.1452 54.978L51.958 49.6134H57.8403L56.8185 53.8712C56.6968 54.3782 57.081 54.8655 57.6024 54.8655C58.2447 54.8655 58.629 55.58 58.2751 56.116L51.7479 66L53.8115 58.2615C54.0424 57.3957 53.3898 56.5462 52.4937 56.5462C51.659 56.5462 51.0201 55.8032 51.1452 54.978Z" fill="url(#paint0_linear_34_267)"/>
<g filter="url(#filter0_bdi_34_267)">
<path fill-rule="evenodd" clip-rule="evenodd" d="M67.2783 49.6134H41.6638V49.6111C41.594 49.6127 41.524 49.6134 41.4538 49.6134C36.2326 49.6134 32 45.3808 32 40.1596C32 36.6164 33.9493 33.5284 36.834 31.9096C36.8326 31.8236 36.8319 31.7375 36.8319 31.6513C36.8319 23.0073 43.8392 16 52.4832 16C59.9393 16 66.1777 21.2138 67.7514 28.1945C73.4566 28.434 78.0084 33.135 78.0084 38.8992C78.0084 44.6758 73.4368 49.3847 67.7143 49.6054V49.6134H67.3099C67.3046 49.6134 67.2994 49.6134 67.2941 49.6134C67.2888 49.6134 67.2835 49.6134 67.2783 49.6134Z" fill="url(#paint1_radial_34_267)" fill-opacity="0.77"/>
</g>
<g style="mix-blend-mode:soft-light" filter="url(#filter1_di_34_267)">
<circle cx="41.4538" cy="40.1597" r="9.45378" fill="#848484"/>
</g>
<mask id="mask0_34_267" style="mask-type:alpha" maskUnits="userSpaceOnUse" x="32" y="16" width="47" height="34">
<path fill-rule="evenodd" clip-rule="evenodd" d="M67.2783 49.6134H41.6638V49.6111C41.594 49.6127 41.524 49.6134 41.4538 49.6134C36.2326 49.6134 32 45.3808 32 40.1596C32 36.6164 33.9493 33.5284 36.834 31.9096C36.8326 31.8236 36.8319 31.7375 36.8319 31.6513C36.8319 23.0073 43.8392 16 52.4832 16C59.9393 16 66.1777 21.2138 67.7514 28.1945C73.4566 28.434 78.0084 33.135 78.0084 38.8992C78.0084 44.3901 73.8779 48.9162 68.5546 49.5401V49.6134H67.3099C67.3046 49.6134 67.2994 49.6134 67.2941 49.6134C67.2888 49.6134 67.2835 49.6134 67.2783 49.6134Z" fill="url(#paint2_radial_34_267)" fill-opacity="0.77"/>
</mask>
<g mask="url(#mask0_34_267)">
<g filter="url(#filter2_f_34_267)">
<path d="M54.479 41.6302C48.9211 45.7225 43.8727 48.5641 40.6134 49.6134H69.395C65.8955 49.6134 58.5102 44.0567 54.479 41.6302Z" fill="url(#paint3_radial_34_267)"/>
</g>
<g style="mix-blend-mode:screen" filter="url(#filter3_f_34_267)">
<path d="M55.7395 38.0588C52.2278 40.07 47.2947 49.5179 45.2353 50.0336H66.2437C64.0326 50.0336 58.2866 39.2514 55.7395 38.0588Z" fill="url(#paint4_linear_34_267)"/>
</g>
<g style="mix-blend-mode:screen" filter="url(#filter4_f_34_267)">
<path d="M54.8992 40.5798C52.5423 41.9248 49.1384 49.6887 47.7563 50.0336L61.8319 49.6134C60.348 49.6134 56.6086 41.3773 54.8992 40.5798Z" fill="url(#paint5_linear_34_267)"/>
</g>
</g>
<defs>
<filter id="filter0_bdi_34_267" x="0" y="0" width="110.008" height="97.6134" filterUnits="userSpaceOnUse" color-interpolation-filters="sRGB">
<feFlood flood-opacity="0" result="BackgroundImageFix"/>
<feGaussianBlur in="BackgroundImage" stdDeviation="8"/>
<feComposite in2="SourceAlpha" operator="in" result="effect1_backgroundBlur_34_267"/>
<feColorMatrix in="SourceAlpha" type="matrix" values="0 0 0 0 0 0 0 0 0 0 0 0 0 0 0 0 0 0 127 0" result="hardAlpha"/>
<feOffset dy="16"/>
<feGaussianBlur stdDeviation="16"/>
<feColorMatrix type="matrix" values="0 0 0 0 0 0 0 0 0 0.2015 0 0 0 0 0.3875 0 0 0 0.2 0"/>
<feBlend mode="normal" in2="effect1_backgroundBlur_34_267" result="effect2_dropShadow_34_267"/>
<feBlend mode="normal" in="SourceGraphic" in2="effect2_dropShadow_34_267" result="shape"/>
<feColorMatrix in="SourceAlpha" type="matrix" values="0 0 0 0 0 0 0 0 0 0 0 0 0 0 0 0 0 0 127 0" result="hardAlpha"/>
<feOffset dx="1" dy="2"/>
<feGaussianBlur stdDeviation="7"/>
<feComposite in2="hardAlpha" operator="arithmetic" k2="-1" k3="1"/>
<feColorMatrix type="matrix" values="0 0 0 0 1 0 0 0 0 1 0 0 0 0 1 0 0 0 1 0"/>
<feBlend mode="normal" in2="shape" result="effect3_innerShadow_34_267"/>
</filter>
<filter id="filter1_di_34_267" x="24" y="14.7059" width="48.9076" height="46.9076" filterUnits="userSpaceOnUse" color-interpolation-filters="sRGB">
<feFlood flood-opacity="0" result="BackgroundImageFix"/>
<feColorMatrix in="SourceAlpha" type="matrix" values="0 0 0 0 0 0 0 0 0 0 0 0 0 0 0 0 0 0 127 0" result="hardAlpha"/>
<feOffset dx="-2" dy="-10"/>
<feGaussianBlur stdDeviation="3"/>
<feColorMatrix type="matrix" values="0 0 0 0 0 0 0 0 0 0 0 0 0 0 0 0 0 0 0.22 0"/>
<feBlend mode="normal" in2="BackgroundImageFix" result="effect1_dropShadow_34_267"/>
<feBlend mode="normal" in="SourceGraphic" in2="effect1_dropShadow_34_267" result="shape"/>
<feColorMatrix in="SourceAlpha" type="matrix" values="0 0 0 0 0 0 0 0 0 0 0 0 0 0 0 0 0 0 127 0" result="hardAlpha"/>
<feOffset dx="22" dy="12"/>
<feGaussianBlur stdDeviation="11"/>
<feComposite in2="hardAlpha" operator="arithmetic" k2="-1" k3="1"/>
<feColorMatrix type="matrix" values="0 0 0 0 1 0 0 0 0 1 0 0 0 0 1 0 0 0 0.74 0"/>
<feBlend mode="normal" in2="shape" result="effect2_innerShadow_34_267"/>
</filter>
<filter id="filter2_f_34_267" x="32.6134" y="33.6302" width="44.7815" height="23.9832" filterUnits="userSpaceOnUse" color-interpolation-filters="sRGB">
<feFlood flood-opacity="0" result="BackgroundImageFix"/>
<feBlend mode="normal" in="SourceGraphic" in2="BackgroundImageFix" result="shape"/>
<feGaussianBlur stdDeviation="4" result="effect1_foregroundBlur_34_267"/>
</filter>
<filter id="filter3_f_34_267" x="41.2353" y="34.0588" width="29.0084" height="19.9748" filterUnits="userSpaceOnUse" color-interpolation-filters="sRGB">
<feFlood flood-opacity="0" result="BackgroundImageFix"/>
<feBlend mode="normal" in="SourceGraphic" in2="BackgroundImageFix" result="shape"/>
<feGaussianBlur stdDeviation="2" result="effect1_foregroundBlur_34_267"/>
</filter>
<filter id="filter4_f_34_267" x="43.7563" y="36.5798" width="22.0756" height="17.4538" filterUnits="userSpaceOnUse" color-interpolation-filters="sRGB">
<feFlood flood-opacity="0" result="BackgroundImageFix"/>
<feBlend mode="normal" in="SourceGraphic" in2="BackgroundImageFix" result="shape"/>
<feGaussianBlur stdDeviation="2" result="effect1_foregroundBlur_34_267"/>
</filter>
<linearGradient id="paint0_linear_34_267" x1="55.5435" y1="49.6134" x2="55.5435" y2="60.5378" gradientUnits="userSpaceOnUse">
<stop stop-color="#E2BC38"/>
<stop offset="1" stop-color="#FFE244"/>
</linearGradient>
<radialGradient id="paint1_radial_34_267" cx="0" cy="0" r="1" gradientUnits="userSpaceOnUse" gradientTransform="translate(48.211 23.1669) rotate(90.6693) scale(26.4346 30.1654)">
<stop stop-color="white"/>
<stop offset="1" stop-color="#99CEFF"/>
</radialGradient>
<radialGradient id="paint2_radial_34_267" cx="0" cy="0" r="1" gradientUnits="userSpaceOnUse" gradientTransform="translate(48.211 23.1669) rotate(90.6693) scale(26.4346 30.1654)">
<stop stop-color="white"/>
<stop offset="1" stop-color="#99CEFF"/>
</radialGradient>
<radialGradient id="paint3_radial_34_267" cx="0" cy="0" r="1" gradientUnits="userSpaceOnUse" gradientTransform="translate(57.1867 48.7281) rotate(-90) scale(4.52507 23.3769)">
<stop stop-color="#FFDE41"/>
<stop offset="1" stop-color="#FFD200" stop-opacity="0"/>
</radialGradient>
<linearGradient id="paint4_linear_34_267" x1="56.3042" y1="49.8" x2="56.3042" y2="48.2567" gradientUnits="userSpaceOnUse">
<stop stop-color="#FFDE41"/>
<stop offset="1" stop-color="#FFD200" stop-opacity="0"/>
</linearGradient>
<linearGradient id="paint5_linear_34_267" x1="55.1851" y1="49.8707" x2="55.1851" y2="47.7389" gradientUnits="userSpaceOnUse">
<stop stop-color="#FFDE41"/>
<stop offset="1" stop-color="#FFD200" stop-opacity="0"/>
</linearGradient>
</defs>
</svg>
