<svg width="24" height="24" viewBox="0 0 24 24" fill="none" xmlns="http://www.w3.org/2000/svg">
<path d="M9.59858 19.198C11.8125 19.1881 13.9535 18.4056 15.652 16.9856C15.6775 17.0324 15.707 17.0769 15.7402 17.1186L22.3443 23.723C22.5279 23.9021 22.7747 24.0016 23.0311 24C23.2875 23.9984 23.533 23.8958 23.7144 23.7145C23.8957 23.5331 23.9983 23.2876 24 23.0312C24.0016 22.7747 23.9022 22.528 23.7232 22.3443L17.1188 15.7405C17.0772 15.7073 17.0327 15.6779 16.986 15.6523C18.4055 13.9537 19.1875 11.8127 19.1972 9.59901C19.1972 7.70051 18.6342 5.84464 17.5795 4.26609C16.5248 2.68754 15.0257 1.45721 13.2718 0.730685C11.5179 0.00415914 9.58794 -0.185933 7.72599 0.184447C5.86405 0.554826 4.15375 1.46904 2.81136 2.81149C1.46898 4.15393 0.554802 5.86431 0.184438 7.72634C-0.185925 9.58836 0.00415895 11.5184 0.730653 13.2724C1.45715 15.0264 2.68742 16.5255 4.2659 17.5803C5.84438 18.635 7.70016 19.198 9.59858 19.198ZM9.59858 1.95031C11.1113 1.95027 12.5901 2.39884 13.848 3.2393C15.1058 4.07975 16.0862 5.27435 16.6651 6.67201C17.244 8.06967 17.3955 9.60763 17.1004 11.0914C16.8053 12.5751 16.0768 13.9381 15.0071 15.0078C13.9374 16.0775 12.5746 16.806 11.0909 17.1011C9.6072 17.3963 8.06931 17.2448 6.67171 16.6658C5.27411 16.0869 4.07957 15.1065 3.23915 13.8486C2.39873 12.5907 1.95018 11.1118 1.95022 9.59901C1.95022 7.57045 2.75603 5.62497 4.19037 4.19056C5.62472 2.75615 7.57011 1.95031 9.59858 1.95031V1.95031Z" fill="black"/>
</svg>
